<svg xmlns="http://www.w3.org/2000/svg" xmlns:xlink="http://www.w3.org/1999/xlink" width="405" zoomAndPan="magnify" viewBox="0 0 303.75 88.499997" height="118" preserveAspectRatio="xMidYMid meet" version="1.0"><defs><g/><clipPath id="7f19cd4565"><path d="M 1 15 L 58.898438 15 L 58.898438 73 L 1 73 Z M 1 15 " clip-rule="nonzero"/></clipPath></defs><g clip-path="url(#7f19cd4565)"><path fill="#000000" d="M 12.332031 62.546875 L 12.992188 63.199219 L 13.054688 63.261719 C 15.105469 65.386719 15.082031 68.800781 12.992188 70.894531 C 10.898438 72.984375 7.480469 73.007812 5.359375 70.960938 L 5.292969 70.894531 L 4.636719 70.242188 L 2.84375 68.441406 C 0.730469 66.328125 0.730469 62.867188 2.84375 60.746094 C 4.957031 58.632812 8.425781 58.632812 10.539062 60.746094 Z M 48.632812 32.769531 L 50 31.402344 L 56.710938 24.695312 C 58.824219 22.578125 58.824219 19.117188 56.710938 16.996094 C 54.589844 14.882812 51.128906 14.882812 49.015625 16.996094 L 37.089844 28.921875 C 34.976562 31.035156 34.976562 34.496094 37.089844 36.617188 L 40.9375 40.46875 L 41.625 41.148438 L 49.066406 48.585938 C 51.179688 50.703125 54.640625 50.703125 56.761719 48.585938 C 58.875 46.472656 58.875 43.003906 56.761719 40.890625 L 49.320312 33.449219 Z M 3.152344 17.046875 L 3.152344 17.042969 C 5.265625 14.925781 8.734375 14.925781 10.847656 17.042969 L 56.660156 62.859375 C 58.78125 64.976562 58.78125 68.441406 56.660156 70.558594 C 54.542969 72.671875 51.085938 72.671875 48.960938 70.558594 L 3.152344 24.738281 C 1.035156 22.625 1.035156 19.164062 3.152344 17.046875 Z M 3.085938 38.980469 C 5.199219 36.867188 8.660156 36.867188 10.78125 38.980469 L 15.996094 44.199219 L 27.285156 55.488281 L 34.726562 62.925781 C 36.839844 65.039062 36.839844 68.507812 34.726562 70.621094 C 32.605469 72.738281 29.144531 72.738281 27.03125 70.621094 L 19.589844 63.183594 L 3.085938 46.679688 C 0.96875 44.5625 0.96875 41.097656 3.085938 38.980469 Z M 3.085938 38.980469 " fill-opacity="1" fill-rule="evenodd"/></g><g fill="#000000" fill-opacity="1"><g transform="translate(75.11314, 35.457277)"><g><path d="M 2.328125 0 L 2.328125 -22.0625 L 9.109375 -22.0625 C 12.992188 -22.0625 15.851562 -21.070312 17.6875 -19.09375 C 19.53125 -17.125 20.453125 -14.414062 20.453125 -10.96875 C 20.453125 -7.582031 19.53125 -4.90625 17.6875 -2.9375 C 15.851562 -0.976562 12.992188 0 9.109375 0 Z M 4.984375 -2.203125 L 9.046875 -2.203125 C 11.191406 -2.203125 12.898438 -2.550781 14.171875 -3.25 C 15.441406 -3.957031 16.347656 -4.96875 16.890625 -6.28125 C 17.441406 -7.59375 17.71875 -9.15625 17.71875 -10.96875 C 17.71875 -12.8125 17.441406 -14.394531 16.890625 -15.71875 C 16.347656 -17.050781 15.441406 -18.070312 14.171875 -18.78125 C 12.898438 -19.5 11.191406 -19.859375 9.046875 -19.859375 L 4.984375 -19.859375 Z M 4.984375 -2.203125 "/></g></g></g><g fill="#000000" fill-opacity="1"><g transform="translate(101.928636, 35.457277)"><g><path d="M 10.3125 0.375 C 8.789062 0.375 7.414062 0.078125 6.1875 -0.515625 C 4.957031 -1.117188 3.972656 -2.050781 3.234375 -3.3125 C 2.503906 -4.570312 2.140625 -6.175781 2.140625 -8.125 L 2.140625 -22.0625 L 4.796875 -22.0625 L 4.796875 -8.09375 C 4.796875 -5.957031 5.304688 -4.40625 6.328125 -3.4375 C 7.359375 -2.46875 8.707031 -1.984375 10.375 -1.984375 C 12.03125 -1.984375 13.363281 -2.46875 14.375 -3.4375 C 15.382812 -4.40625 15.890625 -5.957031 15.890625 -8.09375 L 15.890625 -22.0625 L 18.53125 -22.0625 L 18.53125 -8.125 C 18.53125 -6.175781 18.160156 -4.570312 17.421875 -3.3125 C 16.691406 -2.050781 15.707031 -1.117188 14.46875 -0.515625 C 13.226562 0.078125 11.84375 0.375 10.3125 0.375 Z M 10.3125 0.375 "/></g></g></g><g fill="#000000" fill-opacity="1"><g transform="translate(127.483751, 35.457277)"><g><path d="M 2.328125 0 L 2.328125 -22.0625 L 15.984375 -22.0625 L 15.984375 -19.890625 L 4.984375 -19.890625 L 4.984375 -12.203125 L 15.03125 -12.203125 L 15.03125 -10.046875 L 4.984375 -10.046875 L 4.984375 -2.171875 L 15.984375 -2.171875 L 15.984375 0 Z M 2.328125 0 "/></g></g></g><g fill="#000000" fill-opacity="1"><g transform="translate(150.140001, 35.457277)"><g><path d="M 2.328125 0 L 2.328125 -22.0625 L 4.984375 -22.0625 L 4.984375 -2.109375 L 15.25 -2.109375 L 15.25 0 Z M 2.328125 0 "/></g></g></g><g fill="#000000" fill-opacity="1"><g transform="translate(171.567388, 35.457277)"><g><path d="M 2.328125 0 L 2.328125 -22.0625 L 15.75 -22.0625 L 15.75 -19.890625 L 4.984375 -19.890625 L 4.984375 -12.140625 L 14.15625 -12.140625 L 14.15625 -9.984375 L 4.984375 -9.984375 L 4.984375 0 Z M 2.328125 0 "/></g></g></g><g fill="#000000" fill-opacity="1"><g transform="translate(193.278358, 35.457277)"><g><path d="M 2.328125 0 L 2.328125 -22.0625 L 15.984375 -22.0625 L 15.984375 -19.890625 L 4.984375 -19.890625 L 4.984375 -12.203125 L 15.03125 -12.203125 L 15.03125 -10.046875 L 4.984375 -10.046875 L 4.984375 -2.171875 L 15.984375 -2.171875 L 15.984375 0 Z M 2.328125 0 "/></g></g></g><g fill="#000000" fill-opacity="1"><g transform="translate(215.934604, 35.457277)"><g><path d="M 2.328125 0 L 2.328125 -22.0625 L 9.453125 -22.0625 C 11.171875 -22.0625 12.578125 -21.773438 13.671875 -21.203125 C 14.765625 -20.640625 15.570312 -19.863281 16.09375 -18.875 C 16.625 -17.882812 16.890625 -16.789062 16.890625 -15.59375 C 16.890625 -14.207031 16.515625 -12.957031 15.765625 -11.84375 C 15.023438 -10.726562 13.867188 -9.941406 12.296875 -9.484375 L 17.109375 0 L 14 0 L 9.515625 -9.109375 L 4.984375 -9.109375 L 4.984375 0 Z M 4.984375 -11.1875 L 9.265625 -11.1875 C 10.960938 -11.1875 12.203125 -11.59375 12.984375 -12.40625 C 13.765625 -13.226562 14.15625 -14.28125 14.15625 -15.5625 C 14.15625 -16.863281 13.769531 -17.898438 13 -18.671875 C 12.226562 -19.441406 10.972656 -19.828125 9.234375 -19.828125 L 4.984375 -19.828125 Z M 4.984375 -11.1875 "/></g></g></g><g fill="#000000" fill-opacity="1"><g transform="translate(75.11314, 71.255028)"><g><path d="M 9.671875 0.375 C 8.054688 0.375 6.628906 0.0976562 5.390625 -0.453125 C 4.148438 -1.015625 3.171875 -1.8125 2.453125 -2.84375 C 1.742188 -3.882812 1.378906 -5.15625 1.359375 -6.65625 L 5.609375 -6.65625 C 5.648438 -5.625 6.019531 -4.753906 6.71875 -4.046875 C 7.425781 -3.347656 8.398438 -3 9.640625 -3 C 10.710938 -3 11.5625 -3.253906 12.1875 -3.765625 C 12.820312 -4.273438 13.140625 -4.960938 13.140625 -5.828125 C 13.140625 -6.734375 12.859375 -7.4375 12.296875 -7.9375 C 11.742188 -8.445312 11.003906 -8.859375 10.078125 -9.171875 C 9.160156 -9.484375 8.175781 -9.816406 7.125 -10.171875 C 5.414062 -10.765625 4.113281 -11.519531 3.21875 -12.4375 C 2.332031 -13.363281 1.890625 -14.597656 1.890625 -16.140625 C 1.867188 -17.441406 2.175781 -18.554688 2.8125 -19.484375 C 3.457031 -20.421875 4.335938 -21.144531 5.453125 -21.65625 C 6.566406 -22.175781 7.847656 -22.4375 9.296875 -22.4375 C 10.765625 -22.4375 12.0625 -22.171875 13.1875 -21.640625 C 14.3125 -21.117188 15.191406 -20.382812 15.828125 -19.4375 C 16.472656 -18.5 16.816406 -17.378906 16.859375 -16.078125 L 12.546875 -16.078125 C 12.523438 -16.847656 12.222656 -17.53125 11.640625 -18.125 C 11.066406 -18.726562 10.265625 -19.03125 9.234375 -19.03125 C 8.347656 -19.050781 7.601562 -18.835938 7 -18.390625 C 6.40625 -17.941406 6.109375 -17.285156 6.109375 -16.421875 C 6.109375 -15.679688 6.335938 -15.097656 6.796875 -14.671875 C 7.265625 -14.242188 7.894531 -13.878906 8.6875 -13.578125 C 9.488281 -13.285156 10.40625 -12.972656 11.4375 -12.640625 C 12.53125 -12.265625 13.53125 -11.820312 14.4375 -11.3125 C 15.34375 -10.8125 16.066406 -10.144531 16.609375 -9.3125 C 17.148438 -8.476562 17.421875 -7.410156 17.421875 -6.109375 C 17.421875 -4.953125 17.125 -3.878906 16.53125 -2.890625 C 15.945312 -1.910156 15.078125 -1.117188 13.921875 -0.515625 C 12.773438 0.078125 11.359375 0.375 9.671875 0.375 Z M 9.671875 0.375 "/></g></g></g><g fill="#000000" fill-opacity="1"><g transform="translate(98.809206, 71.255028)"><g><path d="M 12.484375 0.375 C 10.273438 0.375 8.34375 -0.101562 6.6875 -1.0625 C 5.039062 -2.03125 3.75 -3.367188 2.8125 -5.078125 C 1.882812 -6.796875 1.421875 -8.78125 1.421875 -11.03125 C 1.421875 -13.28125 1.882812 -15.257812 2.8125 -16.96875 C 3.75 -18.6875 5.039062 -20.023438 6.6875 -20.984375 C 8.34375 -21.953125 10.273438 -22.4375 12.484375 -22.4375 C 14.660156 -22.4375 16.578125 -21.953125 18.234375 -20.984375 C 19.898438 -20.023438 21.195312 -18.6875 22.125 -16.96875 C 23.050781 -15.257812 23.515625 -13.28125 23.515625 -11.03125 C 23.515625 -8.78125 23.050781 -6.796875 22.125 -5.078125 C 21.195312 -3.367188 19.898438 -2.03125 18.234375 -1.0625 C 16.578125 -0.101562 14.660156 0.375 12.484375 0.375 Z M 12.484375 -3.25 C 14.578125 -3.25 16.25 -3.941406 17.5 -5.328125 C 18.75 -6.710938 19.375 -8.613281 19.375 -11.03125 C 19.375 -13.445312 18.75 -15.347656 17.5 -16.734375 C 16.25 -18.117188 14.578125 -18.8125 12.484375 -18.8125 C 10.378906 -18.8125 8.695312 -18.117188 7.4375 -16.734375 C 6.175781 -15.347656 5.546875 -13.445312 5.546875 -11.03125 C 5.546875 -8.613281 6.175781 -6.710938 7.4375 -5.328125 C 8.695312 -3.941406 10.378906 -3.25 12.484375 -3.25 Z M 12.484375 -3.25 "/></g></g></g><g fill="#000000" fill-opacity="1"><g transform="translate(128.618089, 71.255028)"><g><path d="M 2.140625 0 L 2.140625 -22.0625 L 6.171875 -22.0625 L 6.171875 -3.15625 L 15.953125 -3.15625 L 15.953125 0 Z M 2.140625 0 "/></g></g></g><g fill="#000000" fill-opacity="1"><g transform="translate(150.864724, 71.255028)"><g><path d="M 10.65625 0.375 C 9.03125 0.375 7.566406 0.0546875 6.265625 -0.578125 C 4.960938 -1.222656 3.925781 -2.195312 3.15625 -3.5 C 2.394531 -4.800781 2.015625 -6.453125 2.015625 -8.453125 L 2.015625 -22.0625 L 6.046875 -22.0625 L 6.046875 -8.421875 C 6.046875 -6.691406 6.460938 -5.40625 7.296875 -4.5625 C 8.128906 -3.726562 9.28125 -3.3125 10.75 -3.3125 C 12.195312 -3.3125 13.335938 -3.726562 14.171875 -4.5625 C 15.015625 -5.40625 15.4375 -6.691406 15.4375 -8.421875 L 15.4375 -22.0625 L 19.484375 -22.0625 L 19.484375 -8.453125 C 19.484375 -6.453125 19.082031 -4.800781 18.28125 -3.5 C 17.476562 -2.195312 16.410156 -1.222656 15.078125 -0.578125 C 13.742188 0.0546875 12.269531 0.375 10.65625 0.375 Z M 10.65625 0.375 "/></g></g></g><g fill="#000000" fill-opacity="1"><g transform="translate(177.20758, 71.255028)"><g><path d="M 7.28125 0 L 7.28125 -18.8125 L 0.84375 -18.8125 L 0.84375 -22.0625 L 17.78125 -22.0625 L 17.78125 -18.8125 L 11.3125 -18.8125 L 11.3125 0 Z M 7.28125 0 "/></g></g></g><g fill="#000000" fill-opacity="1"><g transform="translate(200.714579, 71.255028)"><g><path d="M 2.140625 0 L 2.140625 -22.0625 L 6.171875 -22.0625 L 6.171875 0 Z M 2.140625 0 "/></g></g></g><g fill="#000000" fill-opacity="1"><g transform="translate(213.918001, 71.255028)"><g><path d="M 12.484375 0.375 C 10.273438 0.375 8.34375 -0.101562 6.6875 -1.0625 C 5.039062 -2.03125 3.75 -3.367188 2.8125 -5.078125 C 1.882812 -6.796875 1.421875 -8.78125 1.421875 -11.03125 C 1.421875 -13.28125 1.882812 -15.257812 2.8125 -16.96875 C 3.75 -18.6875 5.039062 -20.023438 6.6875 -20.984375 C 8.34375 -21.953125 10.273438 -22.4375 12.484375 -22.4375 C 14.660156 -22.4375 16.578125 -21.953125 18.234375 -20.984375 C 19.898438 -20.023438 21.195312 -18.6875 22.125 -16.96875 C 23.050781 -15.257812 23.515625 -13.28125 23.515625 -11.03125 C 23.515625 -8.78125 23.050781 -6.796875 22.125 -5.078125 C 21.195312 -3.367188 19.898438 -2.03125 18.234375 -1.0625 C 16.578125 -0.101562 14.660156 0.375 12.484375 0.375 Z M 12.484375 -3.25 C 14.578125 -3.25 16.25 -3.941406 17.5 -5.328125 C 18.75 -6.710938 19.375 -8.613281 19.375 -11.03125 C 19.375 -13.445312 18.75 -15.347656 17.5 -16.734375 C 16.25 -18.117188 14.578125 -18.8125 12.484375 -18.8125 C 10.378906 -18.8125 8.695312 -18.117188 7.4375 -16.734375 C 6.175781 -15.347656 5.546875 -13.445312 5.546875 -11.03125 C 5.546875 -8.613281 6.175781 -6.710938 7.4375 -5.328125 C 8.695312 -3.941406 10.378906 -3.25 12.484375 -3.25 Z M 12.484375 -3.25 "/></g></g></g><g fill="#000000" fill-opacity="1"><g transform="translate(243.726882, 71.255028)"><g><path d="M 2.140625 0 L 2.140625 -22.0625 L 6.171875 -22.0625 L 16.546875 -6.53125 L 16.546875 -22.0625 L 20.578125 -22.0625 L 20.578125 0 L 16.546875 0 L 6.171875 -15.5 L 6.171875 0 Z M 2.140625 0 "/></g></g></g><g fill="#000000" fill-opacity="1"><g transform="translate(271.330108, 71.255028)"><g><path d="M 9.671875 0.375 C 8.054688 0.375 6.628906 0.0976562 5.390625 -0.453125 C 4.148438 -1.015625 3.171875 -1.8125 2.453125 -2.84375 C 1.742188 -3.882812 1.378906 -5.15625 1.359375 -6.65625 L 5.609375 -6.65625 C 5.648438 -5.625 6.019531 -4.753906 6.71875 -4.046875 C 7.425781 -3.347656 8.398438 -3 9.640625 -3 C 10.710938 -3 11.5625 -3.253906 12.1875 -3.765625 C 12.820312 -4.273438 13.140625 -4.960938 13.140625 -5.828125 C 13.140625 -6.734375 12.859375 -7.4375 12.296875 -7.9375 C 11.742188 -8.445312 11.003906 -8.859375 10.078125 -9.171875 C 9.160156 -9.484375 8.175781 -9.816406 7.125 -10.171875 C 5.414062 -10.765625 4.113281 -11.519531 3.21875 -12.4375 C 2.332031 -13.363281 1.890625 -14.597656 1.890625 -16.140625 C 1.867188 -17.441406 2.175781 -18.554688 2.8125 -19.484375 C 3.457031 -20.421875 4.335938 -21.144531 5.453125 -21.65625 C 6.566406 -22.175781 7.847656 -22.4375 9.296875 -22.4375 C 10.765625 -22.4375 12.0625 -22.171875 13.1875 -21.640625 C 14.3125 -21.117188 15.191406 -20.382812 15.828125 -19.4375 C 16.472656 -18.5 16.816406 -17.378906 16.859375 -16.078125 L 12.546875 -16.078125 C 12.523438 -16.847656 12.222656 -17.53125 11.640625 -18.125 C 11.066406 -18.726562 10.265625 -19.03125 9.234375 -19.03125 C 8.347656 -19.050781 7.601562 -18.835938 7 -18.390625 C 6.40625 -17.941406 6.109375 -17.285156 6.109375 -16.421875 C 6.109375 -15.679688 6.335938 -15.097656 6.796875 -14.671875 C 7.265625 -14.242188 7.894531 -13.878906 8.6875 -13.578125 C 9.488281 -13.285156 10.40625 -12.972656 11.4375 -12.640625 C 12.53125 -12.265625 13.53125 -11.820312 14.4375 -11.3125 C 15.34375 -10.8125 16.066406 -10.144531 16.609375 -9.3125 C 17.148438 -8.476562 17.421875 -7.410156 17.421875 -6.109375 C 17.421875 -4.953125 17.125 -3.878906 16.53125 -2.890625 C 15.945312 -1.910156 15.078125 -1.117188 13.921875 -0.515625 C 12.773438 0.078125 11.359375 0.375 9.671875 0.375 Z M 9.671875 0.375 "/></g></g></g></svg>